<svg xmlns="http://www.w3.org/2000/svg" xmlns:xlink="http://www.w3.org/1999/xlink" xml:space="preserve" class="main-svg" width="1329" height="784"><rect x="0" y="0" width="1329" height="784" style="fill: rgb(255, 255, 255); fill-opacity: 1;"/><defs id="defs-a0c523"><g class="clips"><clipPath class="axesclip" id="clipa0c523x"><rect x="80" y="0" width="1169" height="784"/></clipPath><clipPath class="axesclip" id="clipa0c523y"><rect x="0" y="100" width="1329" height="604"/></clipPath><clipPath class="axesclip" id="clipa0c523xy"><rect x="80" y="100" width="1169" height="604"/></clipPath></g></defs><g class="draglayer"><g transform="translate(80,100)"/></g><g class="subplot xy"><rect x="80" y="100" width="1169" height="604" style="stroke-width: 0px; fill: rgb(255, 255, 255); fill-opacity: 1;"/><g transform="translate(80,100)"><path class="xgrid crisp" d="M0,0v604" transform="translate(259.78,0)" style="stroke: rgb(238, 238, 238); stroke-opacity: 1; stroke-width: 1px;"/><path class="xgrid crisp" d="M0,0v604" transform="translate(389.67,0)" style="stroke: rgb(238, 238, 238); stroke-opacity: 1; stroke-width: 1px;"/><path class="xgrid crisp" d="M0,0v604" transform="translate(519.56,0)" style="stroke: rgb(238, 238, 238); stroke-opacity: 1; stroke-width: 1px;"/><path class="xgrid crisp" d="M0,0v604" transform="translate(649.44,0)" style="stroke: rgb(238, 238, 238); stroke-opacity: 1; stroke-width: 1px;"/><path class="xgrid crisp" d="M0,0v604" transform="translate(779.33,0)" style="stroke: rgb(238, 238, 238); stroke-opacity: 1; stroke-width: 1px;"/><path class="xgrid crisp" d="M0,0v604" transform="translate(909.22,0)" style="stroke: rgb(238, 238, 238); stroke-opacity: 1; stroke-width: 1px;"/><path class="xgrid crisp" d="M0,0v604" transform="translate(1039.11,0)" style="stroke: rgb(238, 238, 238); stroke-opacity: 1; stroke-width: 1px;"/><path class="ygrid crisp" d="M0,0h1169" transform="translate(0,543.6)" style="stroke: rgb(238, 238, 238); stroke-opacity: 1; stroke-width: 1px;"/><path class="ygrid crisp" d="M0,0h1169" transform="translate(0,422.8)" style="stroke: rgb(238, 238, 238); stroke-opacity: 1; stroke-width: 1px;"/><path class="ygrid crisp" d="M0,0h1169" transform="translate(0,302)" style="stroke: rgb(238, 238, 238); stroke-opacity: 1; stroke-width: 1px;"/><path class="ygrid crisp" d="M0,0h1169" transform="translate(0,181.2)" style="stroke: rgb(238, 238, 238); stroke-opacity: 1; stroke-width: 1px;"/><path class="ygrid crisp" d="M0,0h1169" transform="translate(0,60.4)" style="stroke: rgb(238, 238, 238); stroke-opacity: 1; stroke-width: 1px;"/></g><g/><g transform="translate(80,100)"><path class="xzl zl crisp" d="M0,0v604" transform="translate(129.89,0)" style="stroke: rgb(68, 68, 68); stroke-opacity: 1; stroke-width: 1px;"/></g><g/><svg preserveAspectRatio="none" x="80" y="100" width="1169" height="604" viewBox="0 0 1169 604" style="fill: none;"><g class="maplayer"/><g class="barlayer"/><g class="errorlayer"><g class="errorbars"/><g class="errorbars"/><g class="errorbars"/></g><g class="boxlayer"/><g class="scatterlayer"><g class="trace scatter" style="stroke-miterlimit: 2; opacity: 1;"><path class="js-line" d="M129.89,396.64L389.67,342.27L519.56,333.79L649.44,392.1L779.33,398.87L909.22,386.22L1039.11,383" style="fill: none; stroke: rgb(31, 119, 180); stroke-opacity: 1; stroke-width: 2px;"/><g class="points"><path class="point" transform="translate(129.89,396.64)" d="M6,0A6,6 0 1,1 0,-6A6,6 0 0,1 6,0Z" style="opacity: 1; stroke-width: 0px; fill: rgb(31, 119, 180); fill-opacity: 1;"/><path class="point" transform="translate(389.67,342.27)" d="M6,0A6,6 0 1,1 0,-6A6,6 0 0,1 6,0Z" style="opacity: 1; stroke-width: 0px; fill: rgb(31, 119, 180); fill-opacity: 1;"/><path class="point" transform="translate(519.56,333.79)" d="M6,0A6,6 0 1,1 0,-6A6,6 0 0,1 6,0Z" style="opacity: 1; stroke-width: 0px; fill: rgb(31, 119, 180); fill-opacity: 1;"/><path class="point" transform="translate(649.44,392.1)" d="M6,0A6,6 0 1,1 0,-6A6,6 0 0,1 6,0Z" style="opacity: 1; stroke-width: 0px; fill: rgb(31, 119, 180); fill-opacity: 1;"/><path class="point" transform="translate(779.33,398.87)" d="M6,0A6,6 0 1,1 0,-6A6,6 0 0,1 6,0Z" style="opacity: 1; stroke-width: 0px; fill: rgb(31, 119, 180); fill-opacity: 1;"/><path class="point" transform="translate(909.22,386.22)" d="M6,0A6,6 0 1,1 0,-6A6,6 0 0,1 6,0Z" style="opacity: 1; stroke-width: 0px; fill: rgb(31, 119, 180); fill-opacity: 1;"/><path class="point" transform="translate(1039.11,383)" d="M6,0A6,6 0 1,1 0,-6A6,6 0 0,1 6,0Z" style="opacity: 1; stroke-width: 0px; fill: rgb(31, 119, 180); fill-opacity: 1;"/></g></g><g class="trace scatter" style="stroke-miterlimit: 2; opacity: 1;"><path class="js-line" d="M129.89,386.32L389.67,422.8L519.56,397.37L649.44,458.84L779.33,461.55L909.22,448.79L1039.11,443.16" style="fill: none; stroke: rgb(255, 127, 14); stroke-opacity: 1; stroke-width: 2px;"/><g class="points"><path class="point" transform="translate(129.89,386.32)" d="M6,0A6,6 0 1,1 0,-6A6,6 0 0,1 6,0Z" style="opacity: 1; stroke-width: 0px; fill: rgb(255, 127, 14); fill-opacity: 1;"/><path class="point" transform="translate(389.67,422.8)" d="M6,0A6,6 0 1,1 0,-6A6,6 0 0,1 6,0Z" style="opacity: 1; stroke-width: 0px; fill: rgb(255, 127, 14); fill-opacity: 1;"/><path class="point" transform="translate(519.56,397.37)" d="M6,0A6,6 0 1,1 0,-6A6,6 0 0,1 6,0Z" style="opacity: 1; stroke-width: 0px; fill: rgb(255, 127, 14); fill-opacity: 1;"/><path class="point" transform="translate(649.44,458.84)" d="M6,0A6,6 0 1,1 0,-6A6,6 0 0,1 6,0Z" style="opacity: 1; stroke-width: 0px; fill: rgb(255, 127, 14); fill-opacity: 1;"/><path class="point" transform="translate(779.33,461.55)" d="M6,0A6,6 0 1,1 0,-6A6,6 0 0,1 6,0Z" style="opacity: 1; stroke-width: 0px; fill: rgb(255, 127, 14); fill-opacity: 1;"/><path class="point" transform="translate(909.22,448.79)" d="M6,0A6,6 0 1,1 0,-6A6,6 0 0,1 6,0Z" style="opacity: 1; stroke-width: 0px; fill: rgb(255, 127, 14); fill-opacity: 1;"/><path class="point" transform="translate(1039.11,443.16)" d="M6,0A6,6 0 1,1 0,-6A6,6 0 0,1 6,0Z" style="opacity: 1; stroke-width: 0px; fill: rgb(255, 127, 14); fill-opacity: 1;"/></g></g><g class="trace scatter" style="stroke-miterlimit: 2; opacity: 1;"><path class="js-line" d="M129.89,203.91L389.67,455.01L519.56,433.7L649.44,332.03L779.33,302L909.22,280.34L1039.11,267.29" style="fill: none; stroke: rgb(44, 160, 44); stroke-opacity: 1; stroke-width: 2px;"/><g class="points"><path class="point" transform="translate(129.89,203.91)" d="M6,0A6,6 0 1,1 0,-6A6,6 0 0,1 6,0Z" style="opacity: 1; stroke-width: 0px; fill: rgb(44, 160, 44); fill-opacity: 1;"/><path class="point" transform="translate(389.67,455.01)" d="M6,0A6,6 0 1,1 0,-6A6,6 0 0,1 6,0Z" style="opacity: 1; stroke-width: 0px; fill: rgb(44, 160, 44); fill-opacity: 1;"/><path class="point" transform="translate(519.56,433.7)" d="M6,0A6,6 0 1,1 0,-6A6,6 0 0,1 6,0Z" style="opacity: 1; stroke-width: 0px; fill: rgb(44, 160, 44); fill-opacity: 1;"/><path class="point" transform="translate(649.44,332.03)" d="M6,0A6,6 0 1,1 0,-6A6,6 0 0,1 6,0Z" style="opacity: 1; stroke-width: 0px; fill: rgb(44, 160, 44); fill-opacity: 1;"/><path class="point" transform="translate(779.33,302)" d="M6,0A6,6 0 1,1 0,-6A6,6 0 0,1 6,0Z" style="opacity: 1; stroke-width: 0px; fill: rgb(44, 160, 44); fill-opacity: 1;"/><path class="point" transform="translate(909.22,280.34)" d="M6,0A6,6 0 1,1 0,-6A6,6 0 0,1 6,0Z" style="opacity: 1; stroke-width: 0px; fill: rgb(44, 160, 44); fill-opacity: 1;"/><path class="point" transform="translate(1039.11,267.29)" d="M6,0A6,6 0 1,1 0,-6A6,6 0 0,1 6,0Z" style="opacity: 1; stroke-width: 0px; fill: rgb(44, 160, 44); fill-opacity: 1;"/></g></g></g></svg><g/><path class="crisp" transform="translate(80,100)" d="M-1,604.5h1171" style="fill: none; stroke-width: 1px; stroke: rgb(0, 0, 0); stroke-opacity: 0;"/><path class="crisp" transform="translate(80,100)" d="M-0.5,-1v605" stroke-width="1px" style="fill: none; stroke: rgb(0, 0, 0); stroke-opacity: 0;"/><g/><g transform="translate(80,100)"><g class="xtick" data-bb="4020"><text text-anchor="middle" x="0" y="624" transform="translate(0,0)" style="font-family: 'Open sans', verdana, arial, sans-serif; font-size: 18px; fill: rgb(68, 68, 68); fill-opacity: 1; visibility: visible;" data-bb="4009">−1</text></g><g class="xtick" data-bb="4021"><text text-anchor="middle" x="0" y="624" transform="translate(129.89,0)" style="font-family: 'Open sans', verdana, arial, sans-serif; font-size: 18px; fill: rgb(68, 68, 68); fill-opacity: 1; visibility: visible;" data-bb="4010">0</text></g><g class="xtick" data-bb="4022"><text text-anchor="middle" x="0" y="624" transform="translate(259.78,0)" style="font-family: 'Open sans', verdana, arial, sans-serif; font-size: 18px; fill: rgb(68, 68, 68); fill-opacity: 1; visibility: visible;" data-bb="4011">1</text></g><g class="xtick" data-bb="4023"><text text-anchor="middle" x="0" y="624" transform="translate(389.67,0)" style="font-family: 'Open sans', verdana, arial, sans-serif; font-size: 18px; fill: rgb(68, 68, 68); fill-opacity: 1; visibility: visible;" data-bb="4012">2</text></g><g class="xtick" data-bb="4024"><text text-anchor="middle" x="0" y="624" transform="translate(519.56,0)" style="font-family: 'Open sans', verdana, arial, sans-serif; font-size: 18px; fill: rgb(68, 68, 68); fill-opacity: 1; visibility: visible;" data-bb="4013">3</text></g><g class="xtick" data-bb="4025"><text text-anchor="middle" x="0" y="624" transform="translate(649.44,0)" style="font-family: 'Open sans', verdana, arial, sans-serif; font-size: 18px; fill: rgb(68, 68, 68); fill-opacity: 1; visibility: visible;" data-bb="4014">4</text></g><g class="xtick" data-bb="4026"><text text-anchor="middle" x="0" y="624" transform="translate(779.33,0)" style="font-family: 'Open sans', verdana, arial, sans-serif; font-size: 18px; fill: rgb(68, 68, 68); fill-opacity: 1; visibility: visible;" data-bb="4015">5</text></g><g class="xtick" data-bb="4027"><text text-anchor="middle" x="0" y="624" transform="translate(909.22,0)" style="font-family: 'Open sans', verdana, arial, sans-serif; font-size: 18px; fill: rgb(68, 68, 68); fill-opacity: 1; visibility: visible;" data-bb="4016">6</text></g><g class="xtick" data-bb="4028"><text text-anchor="middle" x="0" y="624" transform="translate(1039.11,0)" style="font-family: 'Open sans', verdana, arial, sans-serif; font-size: 18px; fill: rgb(68, 68, 68); fill-opacity: 1; visibility: visible;" data-bb="4017">7</text></g><g class="xtick" data-bb="4029"><text text-anchor="middle" x="0" y="624" transform="translate(1169,0)" style="font-family: 'Open sans', verdana, arial, sans-serif; font-size: 18px; fill: rgb(68, 68, 68); fill-opacity: 1; visibility: visible;" data-bb="4018">8</text></g></g><g transform="translate(80,100)"><g class="ytick" data-bb="4031"><text text-anchor="end" x="-2" y="9" transform="translate(0,543.6)" style="font-family: 'Open sans', verdana, arial, sans-serif; font-size: 18px; fill: rgb(68, 68, 68); fill-opacity: 1; visibility: visible;">0.3</text></g><g class="ytick" data-bb="4032"><text text-anchor="end" x="-2" y="9" transform="translate(0,422.8)" style="font-family: 'Open sans', verdana, arial, sans-serif; font-size: 18px; fill: rgb(68, 68, 68); fill-opacity: 1; visibility: visible;">0.4</text></g><g class="ytick" data-bb="4033"><text text-anchor="end" x="-2" y="9" transform="translate(0,302)" style="font-family: 'Open sans', verdana, arial, sans-serif; font-size: 18px; fill: rgb(68, 68, 68); fill-opacity: 1; visibility: visible;">0.5</text></g><g class="ytick" data-bb="4034"><text text-anchor="end" x="-2" y="9" transform="translate(0,181.2)" style="font-family: 'Open sans', verdana, arial, sans-serif; font-size: 18px; fill: rgb(68, 68, 68); fill-opacity: 1; visibility: visible;">0.6</text></g><g class="ytick" data-bb="4035"><text text-anchor="end" x="-2" y="9" transform="translate(0,60.4)" style="font-family: 'Open sans', verdana, arial, sans-serif; font-size: 18px; fill: rgb(68, 68, 68); fill-opacity: 1; visibility: visible;">0.7</text></g></g><g/></g><g class="shapelayer"/><g class="infolayer"><g class="g-gtitle"/><g class="g-xtitle" data-bb="4019"><text class="xtitle" x="664.5" y="768" text-anchor="middle" style="font-family: 'Open sans', verdana, arial, sans-serif; font-size: 18px; fill: rgb(68, 68, 68); opacity: 1; visibility: visible;">Maximum number of characters (0 means no limit)</text></g><g class="g-ytitle" data-bb="4030"><text class="ytitle" transform="rotate(-90,34,402) translate(0, 0)" x="34" y="402" text-anchor="middle" style="font-family: 'Open sans', verdana, arial, sans-serif; font-size: 18px; fill: rgb(68, 68, 68); opacity: 1; visibility: visible;">Proportion of labels in the majority class</text></g><svg class="legend" x="1147" y="173" width="74" height="97"><rect class="bg" style="stroke: rgb(68, 68, 68); stroke-opacity: 1; fill: rgb(255, 255, 255); fill-opacity: 1; stroke-width: 0px;" x="0" y="0" width="74" height="97"/><g class="traces" style="opacity: 1;" transform="translate(0,19.5)"><g class="legendfill"/><g class="legendlines"><path class="js-line" d="M5,0h30" style="fill: none; stroke: rgb(31, 119, 180); stroke-opacity: 1; stroke-width: 2px;"/></g><g class="legendsymbols" style="opacity: 1;"><g class="legendpoints"><path class="scatterpts" transform="translate(20,0)" d="M6,0A6,6 0 1,1 0,-6A6,6 0 0,1 6,0Z" style="opacity: 1; stroke-width: 0px; fill: rgb(31, 119, 180); fill-opacity: 1;"/></g></g><text class="legendtext" x="40" y="7.8" style="text-anchor: start; font-family: 'Open sans', verdana, arial, sans-serif; font-size: 20px; fill: rgb(68, 68, 68); fill-opacity: 1; visibility: visible;" data-bb="4006">0.5</text><rect class="legendtoggle" pointer-events="all" x="0" y="-14.5" height="29" style="cursor: pointer; fill: rgb(0, 0, 0); fill-opacity: 0;" width="68.203125"/></g><g class="traces" style="opacity: 1;" transform="translate(0,48.5)"><g class="legendfill"/><g class="legendlines"><path class="js-line" d="M5,0h30" style="fill: none; stroke: rgb(255, 127, 14); stroke-opacity: 1; stroke-width: 2px;"/></g><g class="legendsymbols" style="opacity: 1;"><g class="legendpoints"><path class="scatterpts" transform="translate(20,0)" d="M6,0A6,6 0 1,1 0,-6A6,6 0 0,1 6,0Z" style="opacity: 1; stroke-width: 0px; fill: rgb(255, 127, 14); fill-opacity: 1;"/></g></g><text class="legendtext" x="40" y="7.8" style="text-anchor: start; font-family: 'Open sans', verdana, arial, sans-serif; font-size: 20px; fill: rgb(68, 68, 68); fill-opacity: 1; visibility: visible;" data-bb="4007">1.0</text><rect class="legendtoggle" pointer-events="all" x="0" y="-14.5" height="29" style="cursor: pointer; fill: rgb(0, 0, 0); fill-opacity: 0;" width="68.203125"/></g><g class="traces" style="opacity: 1;" transform="translate(0,77.5)"><g class="legendfill"/><g class="legendlines"><path class="js-line" d="M5,0h30" style="fill: none; stroke: rgb(44, 160, 44); stroke-opacity: 1; stroke-width: 2px;"/></g><g class="legendsymbols" style="opacity: 1;"><g class="legendpoints"><path class="scatterpts" transform="translate(20,0)" d="M6,0A6,6 0 1,1 0,-6A6,6 0 0,1 6,0Z" style="opacity: 1; stroke-width: 0px; fill: rgb(44, 160, 44); fill-opacity: 1;"/></g></g><text class="legendtext" x="40" y="7.8" style="text-anchor: start; font-family: 'Open sans', verdana, arial, sans-serif; font-size: 20px; fill: rgb(68, 68, 68); fill-opacity: 1; visibility: visible;" data-bb="4008">1.5</text><rect class="legendtoggle" pointer-events="all" x="0" y="-14.5" height="29" width="68.203125" style="cursor: pointer; fill: rgb(0, 0, 0); fill-opacity: 0;"/></g></svg></g><g class="hoverlayer"/><text class="js-plot-link-container" style="font-family: 'Open Sans', Arial, sans-serif; font-size: 12px; fill: rgb(68, 68, 68);" y="775" text-anchor="end" x="1322"><tspan class="js-link-to-tool"/><tspan class="js-link-spacer"/><tspan class="js-sourcelinks"/></text></svg>